<?xml version="1.0" encoding="UTF-8"?>
<svg width="768px" height="768px" viewBox="0 0 768 768" version="1.1" xmlns="http://www.w3.org/2000/svg" xmlns:xlink="http://www.w3.org/1999/xlink">
    <!-- Generator: Sketch 63.1 (92452) - https://sketch.com -->
    <title>android_front</title>
    <desc>Created with Sketch.</desc>
    <g id="Logo" stroke="none" stroke-width="1" fill="none" fill-rule="evenodd">
        <g id="Icon-Android" transform="translate(-128.000000, -128.000000)">
            <g id="android_front" transform="translate(128.000000, 128.000000)">
                <circle id="Oval" stroke="#FFFFFF" stroke-width="26" cx="384" cy="384" r="371"></circle>
                <path d="M302.839844,491.662109 C315.730469,491.662109 327.253906,488.585938 337.410156,482.433594 C347.566406,476.28125 355.549805,467.418945 361.360352,455.84668 C367.170898,444.274414 370.076172,431.75 370.076172,418.273438 C370.076172,397.765625 363.899414,381.041992 351.545898,368.102539 C339.192383,355.163086 324.226562,348.693359 306.648438,348.693359 C296.589844,348.693359 286.970703,351.037109 277.791016,355.724609 C268.611328,360.412109 260.847656,367.589844 254.5,377.257812 C254.695312,355.773438 257.185547,339.220703 261.970703,327.599609 C266.755859,315.978516 273.298828,307.140625 281.599609,301.085938 C287.947266,296.398438 295.320312,294.054688 303.71875,294.054688 C314.167969,294.054688 322.957031,297.814453 330.085938,305.333984 C334.382812,310.021484 337.703125,317.541016 340.046875,327.892578 L340.046875,327.892578 L366.267578,325.841797 C364.119141,309.142578 357.649414,296.056641 346.858398,286.583984 C336.067383,277.111328 322.224609,272.375 305.330078,272.375 C282.673828,272.375 264.65625,280.578125 251.277344,296.984375 C235.945312,315.832031 228.279297,346.007812 228.279297,387.511719 C228.279297,424.621094 235.212891,451.256836 249.080078,467.418945 C262.947266,483.581055 280.867188,491.662109 302.839844,491.662109 Z M302.400391,469.982422 C294.783203,469.982422 287.507812,467.80957 280.574219,463.463867 C273.640625,459.118164 268.245117,452.794922 264.387695,444.494141 C260.530273,436.193359 258.601562,427.501953 258.601562,418.419922 C258.601562,404.552734 262.751953,393.34668 271.052734,384.801758 C279.353516,376.256836 289.460938,371.984375 301.375,371.984375 C313.386719,371.984375 323.347656,376.256836 331.257812,384.801758 C339.167969,393.34668 343.123047,405.041016 343.123047,419.884766 C343.123047,435.314453 339.119141,447.521484 331.111328,456.505859 C323.103516,465.490234 313.533203,469.982422 302.400391,469.982422 Z M466.316406,491.662109 C482.039062,491.662109 495.051758,487.438477 505.354492,478.991211 C515.657227,470.543945 523.396484,458.581055 528.572266,443.102539 C533.748047,427.624023 536.335938,407.287109 536.335938,382.091797 C536.335938,360.802734 534.724609,343.883789 531.501953,331.334961 C528.279297,318.786133 523.835938,308.141602 518.171875,299.401367 C512.507812,290.661133 505.330078,283.97168 496.638672,279.333008 C487.947266,274.694336 477.839844,272.375 466.316406,272.375 C450.691406,272.375 437.727539,276.574219 427.424805,284.972656 C417.12207,293.371094 409.358398,305.30957 404.133789,320.788086 C398.90918,336.266602 396.296875,356.701172 396.296875,382.091797 C396.296875,422.423828 403.376953,451.525391 417.537109,469.396484 C429.353516,484.240234 445.613281,491.662109 466.316406,491.662109 Z M466.316406,469.982422 C454.207031,469.982422 444.026367,464.147461 435.774414,452.477539 C427.522461,440.807617 423.396484,417.345703 423.396484,382.091797 C423.396484,346.837891 427.9375,322.667969 437.019531,309.582031 C444.246094,299.328125 453.914062,294.201172 466.023438,294.201172 C478.328125,294.201172 488.606445,300.011719 496.858398,311.632812 C505.110352,323.253906 509.236328,346.740234 509.236328,382.091797 C509.236328,417.248047 505.110352,440.685547 496.858398,452.404297 C488.606445,464.123047 478.425781,469.982422 466.316406,469.982422 Z" id="60" fill="#FFFFFF" fill-rule="nonzero"></path>
            </g>
        </g>
    </g>
</svg>